<?xml version="1.0" standalone="no"?>
<!DOCTYPE svg PUBLIC "-//W3C//DTD SVG 20010904//EN"
 "http://www.w3.org/TR/2001/REC-SVG-20010904/DTD/svg10.dtd">
<svg version="1.0" xmlns="http://www.w3.org/2000/svg"
 width="500.000000pt" height="435.000000pt" viewBox="0 0 500.000000 435.000000"
 preserveAspectRatio="xMidYMid meet">
<metadata>
Created by potrace 1.16, written by Peter Selinger 2001-2019
</metadata>
<g transform="translate(0.000000,435.000000) scale(0.100000,-0.100000)"
fill="#000000" stroke="none">
<path d="M2709 4306 c-36 -12 -99 -53 -99 -62 0 -3 5 -2 12 2 7 4 8 3 4 -5 -4
-6 -11 -9 -16 -6 -12 8 -43 -41 -37 -57 4 -8 6 -7 6 4 2 31 16 27 16 -5 0 -24
5 -32 20 -34 l20 -3 -20 9 c-20 9 -17 12 22 15 6 1 22 11 35 22 13 12 32 26
43 32 11 6 15 12 9 12 -6 0 -29 -12 -50 -26 -31 -21 -35 -22 -20 -6 10 12 38
29 63 38 50 19 99 10 143 -27 l25 -21 -36 21 c-20 12 -42 21 -50 21 -7 0 5 -9
26 -21 51 -26 50 -26 50 -15 0 5 10 12 23 17 12 5 22 13 22 18 0 17 -70 70
-107 80 -48 14 -59 13 -104 -3z"/>
<path d="M1990 4197 c-34 -15 -110 -76 -110 -88 0 -6 6 -7 13 -3 7 4 9 3 4 -2
-5 -5 -14 -9 -20 -9 -7 0 -12 -7 -12 -15 0 -11 12 -15 40 -16 30 -1 47 5 68
25 25 23 37 26 98 27 39 0 72 -3 75 -8 3 -4 14 -8 25 -8 35 0 19 42 -26 67
-68 39 -150 27 -213 -30 -17 -16 -21 -17 -17 -6 10 27 98 69 144 69 42 0 108
-27 128 -52 6 -7 13 -22 16 -33 5 -19 5 -19 6 1 1 23 -29 54 -76 78 -36 18
-106 20 -143 3z"/>
<path d="M2695 4154 c-67 -34 -137 -125 -159 -204 -6 -20 -5 -22 4 -10 10 12
11 10 6 -10 -3 -14 -6 -32 -7 -40 0 -8 -4 -4 -8 10 -7 22 -9 20 -15 -20 -4
-25 -6 -74 -4 -110 l4 -65 4 85 3 85 6 -90 c18 -262 189 -424 343 -326 25 16
58 45 73 64 l28 34 26 -21 c254 -208 373 -453 358 -736 -7 -125 -32 -220 -92
-347 -56 -120 -118 -213 -299 -453 -224 -296 -258 -384 -201 -512 90 -201 71
-384 -54 -521 -37 -41 -73 -57 -144 -64 -135 -12 -233 45 -293 171 -47 97 -67
196 -62 304 2 48 8 93 12 100 4 7 4 17 1 22 -3 6 -1 10 5 10 7 0 10 7 6 15 -3
8 -1 15 5 15 6 0 9 7 5 15 -3 8 -1 15 5 15 6 0 7 5 4 10 -3 6 -1 10 5 10 6 0
8 5 5 10 -3 6 -1 10 5 10 6 0 8 5 5 10 -3 6 -1 10 5 10 6 0 8 5 5 10 -3 5 -1
10 4 10 6 0 11 9 11 21 0 13 4 18 12 13 6 -4 8 -3 5 3 -4 6 6 23 20 39 15 16
28 33 28 37 0 5 8 14 18 21 9 7 17 18 17 24 0 5 15 23 33 38 17 15 38 40 44
57 9 20 18 27 28 23 9 -3 14 -2 11 3 -7 10 28 44 37 35 3 -3 14 7 24 23 17 26
70 77 82 79 3 0 42 35 86 76 44 42 83 74 87 72 3 -2 9 4 13 15 6 21 75 78 88
73 5 -1 6 2 3 7 -8 12 18 33 29 23 5 -4 5 -2 2 4 -4 7 8 25 26 41 18 16 36 37
40 46 3 9 11 17 17 17 6 0 8 5 5 10 -3 6 1 13 9 16 9 3 13 10 10 15 -3 5 0 9
6 9 6 0 8 5 5 10 -3 6 1 13 9 16 9 3 13 10 10 15 -3 5 0 9 6 9 6 0 9 4 5 9 -3
6 3 14 12 20 10 6 14 11 10 11 -5 0 -1 7 8 16 9 9 14 22 11 30 -3 7 -1 14 4
16 16 5 40 120 40 188 0 131 -49 242 -149 340 -190 187 -518 224 -737 82 -91
-59 -184 -168 -184 -215 0 -8 21 -22 47 -32 145 -56 234 -252 188 -420 -82
-304 -473 -359 -650 -92 -65 98 -78 152 -81 337 -1 101 2 170 8 177 6 7 8 20
4 28 -3 8 -1 15 5 15 6 0 8 9 4 20 -4 12 -2 20 5 20 7 0 10 7 6 15 -3 8 -1 15
5 15 6 0 7 5 4 10 -3 6 -1 10 5 10 7 0 10 7 6 15 -3 8 -1 15 5 15 6 0 7 5 4
10 -3 6 -1 10 5 10 6 0 8 5 5 10 -3 6 -1 10 5 10 6 0 8 5 5 10 -3 6 -1 10 5
10 6 0 8 5 5 10 -3 6 -1 10 5 10 6 0 8 5 5 10 -3 6 1 13 9 16 9 3 14 10 11 14
-3 4 2 11 11 14 9 4 14 9 11 13 -4 3 1 12 11 19 14 11 14 13 2 14 -8 0 2 11
23 26 21 14 35 29 32 33 -2 5 2 15 11 22 13 10 21 6 57 -33 78 -84 147 -103
231 -65 100 46 157 158 175 342 4 50 9 73 10 53 0 -20 6 -40 13 -44 6 -4 8 -3
4 4 -4 7 6 12 26 15 l33 4 -30 1 c-29 2 -31 5 -42 60 -13 70 -49 156 -62 148
-5 -3 -8 2 -7 11 0 10 -4 18 -11 18 -6 0 -15 4 -20 9 -5 5 -3 6 5 2 6 -4 12
-3 12 3 0 11 -73 72 -107 90 -25 13 -112 15 -131 2 -8 -5 7 -6 36 -3 59 5 106
-9 147 -45 21 -18 22 -21 5 -9 -67 45 -137 58 -194 36 -14 -5 -47 -29 -73 -52
-26 -24 -43 -36 -38 -28 8 13 7 13 -8 1 -20 -16 -23 -36 -4 -25 7 4 9 3 4 -2
-5 -5 -14 -9 -20 -9 -6 0 -22 -27 -36 -60 -22 -53 -25 -74 -25 -180 0 -99 4
-129 21 -170 l21 -50 -43 -50 c-69 -81 -122 -171 -159 -268 -54 -144 -61 -186
-61 -362 0 -140 3 -169 23 -229 34 -102 58 -143 121 -209 206 -217 562 -168
693 95 87 173 53 377 -87 527 -59 64 -61 67 -48 93 77 155 375 215 588 119 89
-41 189 -141 236 -236 31 -64 34 -77 34 -160 0 -104 -10 -135 -87 -264 -57
-94 -180 -225 -371 -391 -154 -134 -295 -274 -352 -350 -65 -87 -139 -247
-160 -345 -13 -58 -16 -104 -12 -165 8 -119 21 -171 73 -288 23 -51 113 -152
137 -152 7 0 24 -7 40 -14 15 -9 27 -10 27 -5 0 6 5 7 10 4 6 -3 10 -1 10 4 0
6 3 10 8 9 4 -1 32 4 63 11 60 13 179 12 179 -2 0 -5 3 -6 8 -3 14 9 117 -70
154 -119 50 -66 72 -140 66 -224 -9 -122 -78 -226 -187 -278 -47 -23 -70 -27
-141 -28 -77 0 -92 3 -150 33 -36 18 -83 49 -105 69 -22 20 -33 33 -25 29 8
-4 6 0 -4 8 -11 9 -17 16 -13 16 4 0 -2 9 -14 21 -11 11 -18 26 -16 33 3 7 -1
13 -8 13 -19 0 49 -145 88 -186 45 -47 94 -76 167 -100 109 -36 217 -23 324
38 67 39 100 76 140 161 28 59 31 74 31 166 0 97 -1 103 -39 177 -41 81 -101
139 -179 171 l-39 16 35 42 c72 90 107 198 107 328 0 101 -12 161 -51 250 -32
75 -29 115 16 197 34 59 186 279 204 293 4 3 32 39 62 80 149 199 237 369 285
550 25 93 25 317 0 425 -28 121 -134 344 -156 330 -6 -3 -7 0 -5 8 12 29 -220
238 -246 222 -4 -3 -6 9 -4 27 l4 33 -14 -25 c-17 -31 -19 -24 -4 19 8 22 14
29 19 21 5 -8 13 11 20 46 14 66 8 204 -9 244 l-12 25 6 -25 c12 -51 16 -196
7 -235 -8 -32 -9 -22 -4 47 5 91 -9 190 -34 243 -14 27 -14 28 1 11 8 -11 15
-24 15 -30 0 -5 3 -7 6 -4 8 9 -36 89 -46 83 -5 -3 -12 0 -16 6 -4 8 -3 9 4 5
7 -4 12 -3 12 2 0 15 -87 91 -116 103 -42 15 -38 5 4 -14 21 -9 51 -31 67 -49
29 -31 29 -31 -13 4 -24 20 -63 41 -87 48 -59 17 -119 0 -177 -48 -41 -34 -42
-34 -14 -4 16 17 47 40 70 51 23 11 37 20 31 20 -5 1 -23 -6 -40 -15z m166
-65 c44 -31 76 -75 100 -136 33 -84 33 -243 0 -327 -45 -114 -139 -182 -216
-156 -159 53 -227 327 -129 521 25 50 93 115 128 122 35 8 89 -3 117 -24z
m-697 -123 c96 -73 141 -257 100 -411 -67 -258 -287 -275 -380 -30 -27 70 -27
230 0 300 28 72 71 132 114 155 51 28 119 22 166 -14z"/>
<path d="M2742 3995 c-39 -32 -48 -74 -28 -114 19 -36 44 -51 86 -51 17 0 40
5 51 10 29 16 51 67 44 100 -8 38 -59 80 -95 80 -16 0 -42 -11 -58 -25z"/>
<path d="M2035 3876 c-31 -13 -55 -51 -55 -86 0 -63 65 -110 125 -90 85 28 87
150 3 179 -38 13 -36 13 -73 -3z"/>
</g>
</svg>
